<?xml version="1.0" encoding="UTF-8" standalone="no"?>
<svg
   inkscape:version="1.3.2 (091e20e, 2023-11-25, custom)"
   sodipodi:docname="aed.svg"
   id="svg10"
   viewBox="0 0 48 48"
   version="1.1"
   width="48"
   height="48"
   xmlns:inkscape="http://www.inkscape.org/namespaces/inkscape"
   xmlns:sodipodi="http://sodipodi.sourceforge.net/DTD/sodipodi-0.dtd"
   xmlns="http://www.w3.org/2000/svg"
   xmlns:svg="http://www.w3.org/2000/svg"
   xmlns:rdf="http://www.w3.org/1999/02/22-rdf-syntax-ns#"
   xmlns:cc="http://creativecommons.org/ns#"
   xmlns:dc="http://purl.org/dc/elements/1.1/">
  <metadata
     id="metadata16">
    <rdf:RDF>
      <cc:Work
         rdf:about="">
        <dc:format>image/svg+xml</dc:format>
        <dc:type
           rdf:resource="http://purl.org/dc/dcmitype/StillImage" />
      </cc:Work>
    </rdf:RDF>
  </metadata>
  <defs
     id="defs14" />
  <sodipodi:namedview
     inkscape:current-layer="svg10"
     inkscape:window-maximized="1"
     inkscape:window-y="-8"
     inkscape:window-x="-8"
     inkscape:cy="24.470131"
     inkscape:cx="23.495822"
     inkscape:zoom="13.342798"
     showgrid="false"
     id="namedview12"
     inkscape:window-height="1129"
     inkscape:window-width="1920"
     inkscape:pageshadow="2"
     inkscape:pageopacity="0"
     guidetolerance="10"
     gridtolerance="10"
     objecttolerance="10"
     borderopacity="1"
     bordercolor="#666666"
     pagecolor="#ffffff"
     inkscape:showpageshadow="2"
     inkscape:pagecheckerboard="0"
     inkscape:deskcolor="#d1d1d1" />
  <g
     transform="matrix(0.31458993,0,0,0.31066644,-4.6011436,-4.7265384)"
     id="g8"
     style="fill:#000000;fill-opacity:1">
    <path
       id="path4"
       d="m 137,16.1 h 14.8 V 31 h 14.9 V 45.8 H 151.8 V 60.7 H 137 V 45.8 H 122.1 V 31 H 137 Z"
       style="fill:#000000;fill-opacity:1" />
    <path
       id="path6"
       d="m 47.5,56.3 c -19.2,0.2 -36.4,19.3 -31.2,44.5 3.9,19.3 24.4,44.3 60.1,68.5 C 112.1,145 132.6,120 136.5,100.8 141.7,75.5 124.6,56.5 105.3,56.3 95.4,56.1 83,61.4 76.4,74 69.8,61.4 57.4,56.1 47.5,56.3 Z M 91.8,71.6 75,106.1 H 96.3 L 59,149.5 73.4,115.5 H 52.7 Z"
       style="fill:#000000;fill-opacity:1" />
  </g>
</svg>
