<?xml version="1.0" encoding="UTF-8" standalone="no"?>
<svg
   viewBox="0 0 64 64"
   version="1.1"
   id="svg1"
   sodipodi:docname="flag.svg"
   width="64"
   height="64"
   inkscape:version="1.3.2 (091e20e, 2023-11-25, custom)"
   inkscape:export-filename="flag.png"
   inkscape:export-xdpi="96"
   inkscape:export-ydpi="96"
   xmlns:inkscape="http://www.inkscape.org/namespaces/inkscape"
   xmlns:sodipodi="http://sodipodi.sourceforge.net/DTD/sodipodi-0.dtd"
   xmlns="http://www.w3.org/2000/svg"
   xmlns:svg="http://www.w3.org/2000/svg">
  <defs
     id="defs1" />
  <sodipodi:namedview
     id="namedview1"
     pagecolor="#ffffff"
     bordercolor="#000000"
     borderopacity="0.25"
     inkscape:showpageshadow="2"
     inkscape:pageopacity="0.0"
     inkscape:pagecheckerboard="0"
     inkscape:deskcolor="#d1d1d1"
     inkscape:zoom="7.8754018"
     inkscape:cx="58.219252"
     inkscape:cy="42.601001"
     inkscape:window-width="1920"
     inkscape:window-height="1129"
     inkscape:window-x="-8"
     inkscape:window-y="-8"
     inkscape:window-maximized="1"
     inkscape:current-layer="svg1" />
  <!--!Font Awesome Free v7.1.0 by @fontawesome - https://fontawesome.com License - https://fontawesome.com/license/free Copyright 2025 Fonticons, Inc.-->
  <path
     d="m 13.911738,7.4044772 c 0,-1.956805 -1.580914,-3.5377183 -3.537713,-3.5377183 -1.9568025,0 -3.5377194,1.5809133 -3.5377194,3.5377183 V 56.932513 c 0,1.9568 1.5809169,3.53772 3.5377194,3.53772 1.956799,0 3.537713,-1.58092 3.537713,-3.53772 V 43.489189 l 6.931714,-2.078405 c 4.6322,-1.392977 9.629226,-0.961819 13.951878,1.205029 4.720636,2.365852 10.226211,2.653288 15.167963,0.795988 l 4.10154,-1.536696 c 1.381915,-0.519601 2.299516,-1.835186 2.299516,-3.316607 V 11.174357 c 0,-2.5427386 -2.675401,-4.2010392 -4.952803,-3.0623407 l -1.304535,0.6522703 c -4.963859,2.4874564 -10.812149,2.4874564 -15.787065,0 -4.024155,-2.0120799 -8.656353,-2.41007 -12.956892,-1.1165918 l -7.451316,2.2331836 z"
     id="path1"
     style="stroke-width:0.110553" />
</svg>
