<?xml version="1.0" encoding="UTF-8" standalone="no"?>
<svg
   viewBox="0 0 14 14"
   height="14"
   width="14"
   id="svg109"
   version="1.1"
   sodipodi:docname="Map-14.svg"
   inkscape:version="1.3.2 (091e20e, 2023-11-25, custom)"
   inkscape:export-filename="Map-14.png"
   inkscape:export-xdpi="540.23999"
   inkscape:export-ydpi="540.23999"
   xmlns:inkscape="http://www.inkscape.org/namespaces/inkscape"
   xmlns:sodipodi="http://sodipodi.sourceforge.net/DTD/sodipodi-0.dtd"
   xmlns="http://www.w3.org/2000/svg"
   xmlns:svg="http://www.w3.org/2000/svg"
   xmlns:rdf="http://www.w3.org/1999/02/22-rdf-syntax-ns#"
   xmlns:cc="http://creativecommons.org/ns#"
   xmlns:dc="http://purl.org/dc/elements/1.1/">
  <sodipodi:namedview
     id="namedview1"
     pagecolor="#ffffff"
     bordercolor="#000000"
     borderopacity="0.25"
     inkscape:showpageshadow="2"
     inkscape:pageopacity="0.0"
     inkscape:pagecheckerboard="0"
     inkscape:deskcolor="#d1d1d1"
     inkscape:zoom="31.785714"
     inkscape:cx="7.0000001"
     inkscape:cy="7.0000001"
     inkscape:window-width="1920"
     inkscape:window-height="1129"
     inkscape:window-x="-8"
     inkscape:window-y="-8"
     inkscape:window-maximized="1"
     inkscape:current-layer="svg109" />
  <metadata
     id="metadata115">
    <rdf:RDF>
      <cc:Work
         rdf:about="">
        <dc:format>image/svg+xml</dc:format>
        <dc:type
           rdf:resource="http://purl.org/dc/dcmitype/StillImage" />
      </cc:Work>
    </rdf:RDF>
  </metadata>
  <defs
     id="defs113" />
  <path
     id="rect828-8"
     d="m 4.6608147,1.3460659 c -0.0323,0.00212 -0.06398,0.016997 -0.096304,0.025911 -0.021743,0.00629 -0.045113,0.00737 -0.065414,0.016656 -0.00596,0.00269 -0.012296,0.00256 -0.018171,0.00556 L 0.75412571,3.291184 v 0.00926 C 0.60656808,3.3796951 0.50337079,3.5326413 0.50337079,3.7150014 v 8.5281676 c 0,0.0066 0.003377,0.01201 0.003634,0.01851 9.4555e-4,0.0276 0.0105007,0.0539 0.0163536,0.08144 0.007269,0.03359 0.0116137,0.06763 0.0254389,0.09809 0.00217,0.0048 0.001292,0.01003 0.003634,0.0148 0.004479,0.0091 0.0150296,0.01166 0.0199877,0.02036 0.0356395,0.06283 0.082703,0.115246 0.14173105,0.155462 0.0161758,0.01102 0.0299312,0.02264 0.0472437,0.03146 0.0628845,0.0322 0.13170658,0.05367 0.20714541,0.05367 0.0052,0 0.00938,-0.0035 0.014537,-0.0037 0.00512,-1.63e-4 0.00941,0.004 0.014536,0.0037 0.0310101,-0.0021 0.0616041,-0.01579 0.0926701,-0.02406 0.023093,-0.0065 0.047561,-0.0087 0.069048,-0.01851 0.00596,-0.0027 0.012296,-0.0025 0.018171,-0.0056 l 3.4942153,-1.778553 4.4790643,1.785955 c 0.058286,0.02667 0.122535,0.04257 0.1907918,0.04257 0.00323,0 0.00769,-0.0018 0.010903,-0.0019 0.00392,-1.02e-4 0.00699,-0.0035 0.010903,-0.0037 0,0 0.00182,0 0.00182,0 0.00195,-1.02e-4 0.00349,0.002 0.00545,0.0019 0.011577,-7.64e-4 0.022869,-0.0076 0.034524,-0.0093 0.047972,-0.0069 0.094251,-0.01646 0.1362799,-0.03701 0.00289,-0.0014 0.00622,-3.92e-4 0.00909,-0.0019 l 3.7267995,-1.896999 v -0.0056 c 0.147557,-0.07926 0.250755,-0.232203 0.250755,-0.414563 V 1.8217038 c 0,-0.00656 -0.0034,-0.012012 -0.0037,-0.018508 -9.14e-4,-0.030124 -0.0114,-0.05881 -0.01817,-0.088835 -0.0072,-0.030962 -0.01079,-0.062442 -0.02362,-0.090686 -0.0024,-0.00538 -0.0011,-0.011323 -0.0037,-0.016656 -0.0059,-0.012046 -0.0187,-0.016467 -0.02544,-0.027761 -0.03345,-0.055825 -0.07654,-0.1014246 -0.129012,-0.1388047 -0.02053,-0.014762 -0.03753,-0.029608 -0.05996,-0.040716 -0.0616,-0.030562 -0.128324,-0.05182 -0.201694,-0.05182 -0.0039,0 -0.0071,0.00176 -0.0109,0.00185 -0.0064,1.511e-4 -0.01183,-0.00412 -0.01817,-0.0037 -0.04088,0.00268 -0.08122,0.019513 -0.121743,0.033313 -0.01185,0.00417 -0.02496,0.00417 -0.03635,0.00926 -0.0071,0.00313 -0.01484,0.00201 -0.02181,0.00556 L 9.3561094,3.174588 4.9206547,1.40714 4.9188347,1.40529 c -0.00168,-9.664e-4 -0.00375,-9.062e-4 -0.00545,-0.00185 L 4.8843117,1.392336 C 4.8248207,1.364299 4.7599706,1.346068 4.6898857,1.346068 c -0.00508,0 -0.00949,0.00169 -0.014536,0.00185 -8.045e-4,2.11e-5 -0.00101,0.00183 -0.00182,0.00185 -0.00452,1.617e-4 -0.0082,-0.004 -0.012719,-0.0037 z M 5.1550563,2.5175786 8.8764046,4.0018647 V 11.549145 L 5.1550563,10.064859 Z m -0.9303372,0.066626 v 7.4751014 l -2.7910112,1.41951 V 4.0037154 Z m 8.3730339,0 v 7.4732514 l -2.7910113,1.41951 V 4.0037154 Z"
     style="opacity:1;fill:#000000;fill-opacity:1;stroke:none;stroke-width:0.343992;stroke-linecap:square;stroke-miterlimit:4;stroke-dasharray:none;stroke-opacity:1;paint-order:markers stroke fill" />
</svg>
